<svg width="22" height="24" viewBox="0 0 22 24" fill="none" xmlns="http://www.w3.org/2000/svg">
<path fill-rule="evenodd" clip-rule="evenodd" d="M10.2929 0.292893C10.6834 -0.0976311 11.3166 -0.0976311 11.7071 0.292893L21.7071 10.2929C22.0976 10.6834 22.0976 11.3166 21.7071 11.7071C21.3166 12.0976 20.6834 12.0976 20.2929 11.7071L11 2.41421L1.70711 11.7071C1.31658 12.0976 0.683417 12.0976 0.292893 11.7071C-0.0976311 11.3166 -0.0976311 10.6834 0.292893 10.2929L10.2929 0.292893ZM11 14.4142L1.70711 23.7071C1.31658 24.0976 0.683417 24.0976 0.292893 23.7071C-0.0976311 23.3166 -0.0976311 22.6834 0.292893 22.2929L10.2929 12.2929C10.6834 11.9024 11.3166 11.9024 11.7071 12.2929L21.7071 22.2929C22.0976 22.6834 22.0976 23.3166 21.7071 23.7071C21.3166 24.0976 20.6834 24.0976 20.2929 23.7071L11 14.4142Z" fill="white"/>
</svg>
