<svg width="21" height="19" viewBox="0 0 21 19" fill="none" xmlns="http://www.w3.org/2000/svg">
<path fill-rule="evenodd" clip-rule="evenodd" d="M16.0978 7.87817e-07H16.0977H16.0882L3.0544 0.0305718C3.0478 0.0305873 3.04121 0.0308639 3.03464 0.0314009C2.62375 0.0649612 2.19384 0.140474 1.77431 0.354233C1.16246 0.665986 0.665656 1.16335 0.354233 1.77456C0.140517 2.194 0.0649762 2.62371 0.0314039 3.0346C-3.13607e-05 3.41933 -1.62172e-05 3.88242 7.87842e-07 4.40241V4.40245L3.77704e-05 14.26C0.000350889 14.7133 0.00320923 15.1203 0.0314029 15.4654C0.0649711 15.8763 0.140502 16.306 0.354232 16.7255C0.665724 17.3369 1.1626 17.8341 1.77431 18.1457C2.19382 18.3595 2.62371 18.435 3.03461 18.4686C3.41954 18.5 3.88288 18.5 4.40308 18.5H16.0973C16.6174 18.5 17.0807 18.5 17.4654 18.4686C17.8763 18.435 18.3059 18.3594 18.7253 18.1457C19.3362 17.8345 19.8341 17.3377 20.146 16.7255C20.3421 16.3406 20.4217 15.9473 20.4594 15.5679C20.5006 15.4111 20.511 15.2472 20.4898 15.0858C20.5 14.789 20.5 14.4559 20.5 14.0944V4.39998C20.5 3.88113 20.5 3.41885 20.4687 3.0348C20.4352 2.62398 20.3598 2.19414 20.146 1.77456C19.8341 1.16252 19.3363 0.665561 18.7253 0.354233C18.3059 0.140546 17.8763 0.064986 17.4654 0.0314059C17.0808 -3.1359e-05 16.6177 -1.62173e-05 16.0978 7.87817e-07ZM3.23815 2.5231C3.50903 2.50098 3.86936 2.5 4.4502 2.5H16.0502C16.6311 2.5 16.9911 2.50098 17.2618 2.5231C17.5161 2.54388 17.5813 2.57714 17.5903 2.58175C17.7319 2.65391 17.8469 2.76912 17.9186 2.90973C17.9231 2.91861 17.9562 2.98353 17.977 3.23799C17.9991 3.50881 18 3.86898 18 4.44995V11.686L17.319 10.8347C17.147 10.6197 16.9727 10.4018 16.8084 10.229C16.6277 10.0388 16.3773 9.81262 16.0259 9.66751C15.5553 9.47317 15.0329 9.44417 14.5436 9.58539C14.1781 9.69087 13.9043 9.88821 13.7038 10.0572C13.5221 10.2104 13.3256 10.407 13.1317 10.6009L12.6054 11.1272C12.4904 11.2422 12.4034 11.3288 12.3342 11.3959C12.2714 11.3228 12.1927 11.2287 12.0886 11.1038L9.39754 7.87453L9.39261 7.86861C9.20845 7.64756 9.02313 7.42511 8.84986 7.25024C8.65917 7.05779 8.39278 6.82689 8.02092 6.68922C7.527 6.50635 6.9836 6.50249 6.48701 6.67854C6.11332 6.81102 5.84374 7.03817 5.65038 7.22796C5.47454 7.40053 5.28602 7.62054 5.09867 7.83917L5.09361 7.84507L5.0689 7.87391L2.5 10.8709V4.44995C2.5 3.8691 2.50098 3.50892 2.5231 3.23819C2.54389 2.98372 2.57716 2.91852 2.58175 2.90953C2.65382 2.76809 2.76868 2.65339 2.90948 2.58165C2.91839 2.57711 2.98344 2.54391 3.23815 2.5231ZM13.25 4C12.0074 4 11 5.00736 11 6.25C11 7.49264 12.0074 8.5 13.25 8.5C14.4926 8.5 15.5 7.49264 15.5 6.25C15.5 5.00736 14.4926 4 13.25 4ZM6.96705 9.50087C7.0809 9.36805 7.16733 9.26761 7.23653 9.18938C7.30462 9.26856 7.38965 9.37019 7.50164 9.50458L10.1916 12.7325L10.1963 12.7382C10.3677 12.9439 10.5419 13.1531 10.7056 13.3189C10.8875 13.5033 11.1383 13.7217 11.4872 13.8601C11.955 14.0456 12.4721 14.0689 12.9544 13.9266C13.314 13.8205 13.5836 13.6259 13.7816 13.4588C13.9605 13.3077 14.1539 13.1143 14.3441 12.924L14.3494 12.9188L14.8702 12.3979C14.9873 12.2809 15.0759 12.1926 15.1466 12.1241C15.2092 12.2 15.2877 12.2976 15.3911 12.4269L17.9198 15.5878L17.9185 15.5905C17.8469 15.731 17.7319 15.8461 17.5901 15.9183C17.581 15.923 17.5161 15.9561 17.2618 15.9769C16.9911 15.999 16.631 16 16.0502 16H4.4502C3.86938 16 3.50905 15.999 3.23818 15.9769C2.98347 15.9561 2.91821 15.9228 2.90929 15.9182C2.76835 15.8464 2.65365 15.7317 2.58165 15.5903C2.57708 15.5814 2.5439 15.5164 2.5231 15.2618C2.51101 15.1139 2.50516 14.9373 2.5024 14.7096L6.96705 9.50087Z" fill="black"/>
</svg>
