<svg width="18" height="15" viewBox="0 0 18 15" fill="none" xmlns="http://www.w3.org/2000/svg">
<path d="M18 4.56023V12.5357C18 12.9776 17.8426 13.356 17.5279 13.6707C17.2132 13.9855 16.8348 14.1428 16.3929 14.1428H1.60714C1.16518 14.1428 0.78683 13.9855 0.472098 13.6707C0.157366 13.356 0 12.9776 0 12.5357V4.56023C0.294643 4.88836 0.632813 5.17965 1.01451 5.43412C3.43862 7.08144 5.10268 8.23657 6.0067 8.89952C6.38839 9.18077 6.6981 9.40008 6.93583 9.55744C7.17355 9.71481 7.48996 9.87552 7.88504 10.0396C8.28013 10.2036 8.64844 10.2857 8.98995 10.2857H9H9.01004C9.35156 10.2857 9.71987 10.2036 10.115 10.0396C10.51 9.87552 10.8265 9.71481 11.0642 9.55744C11.3019 9.40008 11.6116 9.18077 11.9933 8.89952C13.1317 8.07586 14.7991 6.92072 16.9955 5.43412C17.3772 5.17296 17.7121 4.88166 18 4.56023ZM18 1.60711C18 2.13612 17.8359 2.6417 17.5078 3.12385C17.1797 3.60599 16.7712 4.01782 16.2824 4.35934C13.7645 6.10711 12.1975 7.19528 11.5815 7.62385C11.5145 7.67072 11.3722 7.77284 11.1546 7.93021C10.9369 8.08758 10.7561 8.21481 10.6122 8.31191C10.4682 8.409 10.2941 8.51782 10.0898 8.63836C9.8856 8.75889 9.69308 8.8493 9.51228 8.90956C9.33147 8.96983 9.16406 8.99996 9.01004 8.99996H9H8.98995C8.83594 8.99996 8.66853 8.96983 8.48772 8.90956C8.30692 8.8493 8.1144 8.75889 7.91016 8.63836C7.70592 8.51782 7.53181 8.409 7.38783 8.31191C7.24386 8.21481 7.06306 8.08758 6.84542 7.93021C6.62779 7.77284 6.48549 7.67072 6.41853 7.62385C5.80915 7.19528 4.93192 6.58423 3.78683 5.7907C2.64174 4.99717 1.95536 4.52005 1.72768 4.35934C1.3125 4.07809 0.920759 3.69137 0.552455 3.19918C0.184152 2.707 0 2.24996 0 1.82809C0 1.30577 0.138951 0.870499 0.416853 0.522285C0.694754 0.17407 1.09152 -3.60182e-05 1.60714 -3.60182e-05H16.3929C16.8281 -3.60182e-05 17.2048 0.157329 17.5229 0.472061C17.841 0.786794 18 1.16514 18 1.60711Z" fill="#A8172A"/>
</svg>
