<svg width="17" height="17" viewBox="0 0 17 17" fill="none" xmlns="http://www.w3.org/2000/svg">
<path fill-rule="evenodd" clip-rule="evenodd" d="M7.66666 1.83341C4.445 1.83341 1.83333 4.44509 1.83333 7.66675C1.83333 10.8884 4.445 13.5001 7.66666 13.5001C9.23828 13.5001 10.6647 12.8786 11.7137 11.8679C11.7356 11.8394 11.7596 11.812 11.7857 11.7858C11.8119 11.7597 11.8393 11.7357 11.8678 11.7137C12.8785 10.6648 13.5 9.23837 13.5 7.66675C13.5 4.44509 10.8883 1.83341 7.66666 1.83341ZM13.5266 12.3482C14.5529 11.0651 15.1667 9.43759 15.1667 7.66675C15.1667 3.52461 11.8088 0.166748 7.66666 0.166748C3.52453 0.166748 0.166664 3.52461 0.166664 7.66675C0.166664 11.8089 3.52453 15.1667 7.66666 15.1667C9.43751 15.1667 11.065 14.553 12.3481 13.5267L15.4107 16.5893C15.7362 16.9148 16.2638 16.9148 16.5893 16.5893C16.9147 16.2639 16.9147 15.7363 16.5893 15.4108L13.5266 12.3482Z" fill="#667085"/>
</svg>
