<svg width="22" height="16" viewBox="0 0 22 16" fill="none" xmlns="http://www.w3.org/2000/svg">
<path fill-rule="evenodd" clip-rule="evenodd" d="M3.99995 0.949951C3.19104 0.949951 2.41526 1.27129 1.84328 1.84328C1.27129 2.41526 0.949951 3.19104 0.949951 3.99995V12C0.949951 12.8089 1.27129 13.5846 1.84328 14.1566C2.41526 14.7286 3.19104 15.05 3.99995 15.05H12C12.8089 15.05 13.5846 14.7286 14.1566 14.1566C14.7286 13.5846 15.05 12.8089 15.05 12V11.6987L18.0835 13.2151L18.1058 13.1704L18.0835 13.2151C18.3959 13.3713 18.7432 13.4451 19.0922 13.4293C19.4411 13.4136 19.7803 13.309 20.0774 13.1254C20.3746 12.9418 20.6199 12.6853 20.7901 12.3803C20.9603 12.0753 21.0498 11.7318 21.0499 11.3825V4.61795C21.0498 4.26864 20.9603 3.92464 20.7901 3.6196C20.6199 3.31457 20.3746 3.05809 20.0774 2.87449C19.7803 2.6909 19.4411 2.58628 19.0922 2.57056C18.7432 2.55485 18.3961 2.62855 18.0836 2.78469L18.1059 2.82942L18.0836 2.78469L15.05 4.30118V3.99995C15.05 3.19104 14.7286 2.41526 14.1566 1.84328C13.5846 1.27129 12.8089 0.949951 12 0.949951H3.99995ZM3.3282 3.3282C3.50636 3.15004 3.748 3.04995 3.99995 3.04995H12C12.2519 3.04995 12.4935 3.15004 12.6717 3.3282C12.8499 3.50636 12.95 3.748 12.95 3.99995V12C12.95 12.2519 12.8499 12.4935 12.6717 12.6717C12.4935 12.8499 12.2519 12.95 12 12.95H3.99995C3.748 12.95 3.50636 12.8499 3.3282 12.6717C3.15004 12.4935 3.04995 12.2519 3.04995 12V3.99995C3.04995 3.748 3.15004 3.50636 3.3282 3.3282ZM15.05 9.35095V6.64895L18.95 4.69938V11.3005L15.05 9.35095Z" fill="black"/>
</svg>
