<svg width="36" height="18" viewBox="0 0 36 18" fill="none" xmlns="http://www.w3.org/2000/svg">
<path d="M12.2578 17.748C11.8086 17.748 11.4473 17.6504 11.1738 17.4551C10.9004 17.2663 10.7083 17.0221 10.5977 16.7227C10.487 16.4297 10.4577 16.1172 10.5098 15.7852C10.5684 15.4466 10.7083 15.1341 10.9297 14.8477L21.125 1.43945C21.4505 1.00977 21.8151 0.726562 22.2188 0.589844C22.6289 0.446615 23.0358 0.446615 23.4395 0.589844C23.8431 0.733073 24.2044 1.01628 24.5234 1.43945L34.7285 14.8379C34.9499 15.1243 35.0866 15.4368 35.1387 15.7754C35.1973 16.1074 35.1712 16.4232 35.0605 16.7227C34.9499 17.0221 34.7546 17.2663 34.4746 17.4551C34.2012 17.6504 33.8431 17.748 33.4004 17.748H12.2578ZM12.5801 16.1758H33.0684C33.2507 16.1758 33.3646 16.1139 33.4102 15.9902C33.4622 15.8665 33.4395 15.7396 33.3418 15.6094L23.293 2.41602C23.1758 2.25977 23.0195 2.18164 22.8242 2.18164C22.6354 2.17513 22.4759 2.25651 22.3457 2.42578L12.3066 15.6191C12.2155 15.7493 12.1927 15.8763 12.2383 16C12.2904 16.1172 12.4043 16.1758 12.5801 16.1758ZM19.6504 9.25195C19.3118 9.25195 19.0124 9.17708 18.752 9.02734C18.4915 8.87109 18.2539 8.68229 18.0391 8.46094C17.8242 8.23958 17.6224 8.02799 17.4336 7.82617L18.1855 6.91797C18.4655 7.19792 18.7194 7.46159 18.9473 7.70898C19.1816 7.94987 19.416 8.07031 19.6504 8.07031C19.8652 8.07031 20.0768 8.00521 20.2852 7.875C20.5 7.74479 20.7279 7.59505 20.9688 7.42578C21.2161 7.25651 21.4896 7.10677 21.7891 6.97656C22.0951 6.84635 22.4401 6.78125 22.8242 6.78125C23.2148 6.78125 23.5599 6.84635 23.8594 6.97656C24.1654 7.10677 24.4388 7.25651 24.6797 7.42578C24.9206 7.59505 25.1484 7.74479 25.3633 7.875C25.5781 8.00521 25.793 8.07031 26.0078 8.07031C26.2422 8.07031 26.4733 7.94987 26.7012 7.70898C26.929 7.4681 27.1797 7.20768 27.4531 6.92773L28.2051 7.8457C28.0228 8.04102 27.8242 8.24935 27.6094 8.4707C27.3945 8.68555 27.1569 8.87109 26.8965 9.02734C26.6361 9.17708 26.3398 9.25195 26.0078 9.25195C25.6042 9.25195 25.2526 9.18685 24.9531 9.05664C24.6536 8.92643 24.3835 8.77669 24.1426 8.60742C23.9082 8.43815 23.6868 8.28841 23.4785 8.1582C23.2702 8.02799 23.0521 7.96289 22.8242 7.96289C22.6029 7.96289 22.3848 8.02799 22.1699 8.1582C21.9616 8.28841 21.7402 8.43815 21.5059 8.60742C21.2715 8.77669 21.0046 8.92643 20.7051 9.05664C20.4056 9.18685 20.054 9.25195 19.6504 9.25195ZM14.8164 11.459L10.8613 6.54688C10.7246 6.3776 10.5684 6.29622 10.3926 6.30273C10.2233 6.30273 10.0703 6.38737 9.93359 6.55664L2.61914 15.6191C2.52148 15.7428 2.49544 15.8665 2.54102 15.9902C2.5931 16.1139 2.70052 16.1758 2.86328 16.1758H12.2773V17.748H2.62891C2.16016 17.748 1.78255 17.6471 1.49609 17.4453C1.21615 17.25 1.02083 16.9961 0.910156 16.6836C0.80599 16.3711 0.792969 16.0358 0.871094 15.6777C0.949219 15.3197 1.11849 14.9779 1.37891 14.6523L8.71289 5.56055C9.05143 5.14388 9.41602 4.86719 9.80664 4.73047C10.2038 4.59375 10.5977 4.59375 10.9883 4.73047C11.3854 4.86719 11.75 5.14388 12.082 5.56055L15.7832 10.1504L14.8164 11.459ZM7.54102 11.6348C7.20898 11.6348 6.91927 11.5501 6.67188 11.3809C6.42448 11.2116 6.19987 11.013 5.99805 10.7852C5.80273 10.5573 5.62044 10.3587 5.45117 10.1895L6.1543 9.39844C6.42773 9.65885 6.67513 9.91927 6.89648 10.1797C7.11784 10.4336 7.33268 10.5605 7.54102 10.5605C7.79492 10.5605 8.05208 10.4629 8.3125 10.2676C8.57292 10.0723 8.86914 9.88021 9.20117 9.69141C9.5332 9.49609 9.93034 9.39844 10.3926 9.39844C10.8678 9.39844 11.2715 9.49609 11.6035 9.69141C11.9355 9.88021 12.2285 10.0723 12.4824 10.2676C12.7428 10.4629 13.0033 10.5605 13.2637 10.5605C13.4329 10.5605 13.599 10.4792 13.7617 10.3164C13.931 10.1471 14.1133 9.95833 14.3086 9.75L14.9727 10.6094C14.7578 10.8503 14.5137 11.0814 14.2402 11.3027C13.9668 11.5241 13.6413 11.6348 13.2637 11.6348C12.8991 11.6348 12.5801 11.5762 12.3066 11.459C12.0397 11.3418 11.7988 11.2083 11.584 11.0586C11.3691 10.9023 11.1673 10.7656 10.9785 10.6484C10.7897 10.5312 10.5944 10.4727 10.3926 10.4727C10.1908 10.4727 9.99544 10.5312 9.80664 10.6484C9.62435 10.7656 9.42578 10.9023 9.21094 11.0586C9.0026 11.2083 8.76172 11.3418 8.48828 11.459C8.22135 11.5762 7.9056 11.6348 7.54102 11.6348Z" fill="#1B0C02"/>
</svg>
