<svg width="80" height="50" viewBox="0 0 80 50" fill="none" xmlns="http://www.w3.org/2000/svg">
<rect width="80" height="50" rx="12" fill="#1B0C02"/>
<path d="M34.9023 33.2305C34.5443 33.2305 34.2578 33.1003 34.043 32.8398C33.8346 32.5859 33.7305 32.2474 33.7305 31.8242V18.0938C33.7305 17.6706 33.8346 17.332 34.043 17.0781C34.2578 16.8242 34.5443 16.6973 34.9023 16.6973C35.0977 16.6973 35.2832 16.7331 35.459 16.8047C35.6348 16.8698 35.8203 16.9577 36.0156 17.0684L47.4023 23.6602C47.8125 23.8945 48.0957 24.1061 48.252 24.2949C48.4147 24.4772 48.4961 24.6986 48.4961 24.959C48.4961 25.2194 48.4147 25.444 48.252 25.6328C48.0957 25.8151 47.8125 26.0267 47.4023 26.2676L36.0156 32.8496C35.8203 32.9668 35.6348 33.0579 35.459 33.123C35.2832 33.1947 35.0977 33.2305 34.9023 33.2305Z" fill="white"/>
</svg>
