<svg width="22" height="16" viewBox="0 0 22 16" fill="none" xmlns="http://www.w3.org/2000/svg">
<path d="M11 3.71094C10.4661 3.71094 10.0104 3.64583 9.63281 3.51562C9.26172 3.37891 8.9362 3.21289 8.65625 3.01758C8.38281 2.81576 8.12891 2.61719 7.89453 2.42188C7.66667 2.22656 7.43229 2.0638 7.19141 1.93359C6.95052 1.79688 6.67383 1.72852 6.36133 1.72852C6.04232 1.72852 5.76237 1.79688 5.52148 1.93359C5.28711 2.0638 5.05599 2.22656 4.82812 2.42188C4.60026 2.61719 4.3431 2.81576 4.05664 3.01758C3.77018 3.21289 3.41862 3.37891 3.00195 3.51562C2.5918 3.64583 2.08398 3.71094 1.47852 3.71094H1.42969C1.23438 3.71094 1.06836 3.64583 0.931641 3.51562C0.801432 3.37891 0.736328 3.21289 0.736328 3.01758C0.736328 2.82878 0.801432 2.66927 0.931641 2.53906C1.06836 2.40234 1.23438 2.33398 1.42969 2.33398H1.47852C1.99935 2.33398 2.43229 2.23958 2.77734 2.05078C3.1224 1.86198 3.48047 1.63737 3.85156 1.37695C4.17057 1.14258 4.5319 0.914714 4.93555 0.693359C5.3457 0.465495 5.82096 0.351562 6.36133 0.351562C6.92122 0.351562 7.40625 0.472005 7.81641 0.712891C8.23307 0.947266 8.60091 1.1849 8.91992 1.42578C9.25195 1.67969 9.57096 1.89453 9.87695 2.07031C10.1895 2.24609 10.5638 2.33398 11 2.33398C11.4362 2.33398 11.8073 2.24609 12.1133 2.07031C12.4193 1.89453 12.7415 1.67969 13.0801 1.42578C13.3991 1.1849 13.7637 0.947266 14.1738 0.712891C14.5905 0.472005 15.0788 0.351562 15.6387 0.351562C16.179 0.351562 16.651 0.465495 17.0547 0.693359C17.4648 0.914714 17.8294 1.14258 18.1484 1.37695C18.513 1.63737 18.8678 1.86198 19.2129 2.05078C19.5579 2.23958 19.9941 2.33398 20.5215 2.33398H20.5703C20.7591 2.33398 20.9219 2.40234 21.0586 2.53906C21.1953 2.66927 21.2637 2.82878 21.2637 3.01758C21.2637 3.21289 21.1953 3.37891 21.0586 3.51562C20.9219 3.64583 20.7591 3.71094 20.5703 3.71094H20.5215C19.9095 3.71094 19.3984 3.64583 18.9883 3.51562C18.5781 3.37891 18.2266 3.21289 17.9336 3.01758C17.6471 2.81576 17.39 2.61719 17.1621 2.42188C16.9342 2.22656 16.6999 2.0638 16.459 1.93359C16.2246 1.79688 15.9512 1.72852 15.6387 1.72852C15.3262 1.72852 15.0495 1.79688 14.8086 1.93359C14.5677 2.0638 14.3301 2.22656 14.0957 2.42188C13.8678 2.61719 13.6139 2.81576 13.334 3.01758C13.0605 3.21289 12.735 3.37891 12.3574 3.51562C11.9863 3.64583 11.5339 3.71094 11 3.71094ZM11 9.60938C10.4661 9.60938 10.0104 9.54427 9.63281 9.41406C9.26172 9.27734 8.9362 9.11133 8.65625 8.91602C8.38281 8.7207 8.12891 8.52539 7.89453 8.33008C7.66667 8.12826 7.43229 7.96224 7.19141 7.83203C6.95052 7.69531 6.67383 7.62695 6.36133 7.62695C6.04232 7.62695 5.76237 7.69531 5.52148 7.83203C5.28711 7.96224 5.05599 8.12826 4.82812 8.33008C4.60026 8.52539 4.3431 8.7207 4.05664 8.91602C3.77018 9.11133 3.41862 9.27734 3.00195 9.41406C2.5918 9.54427 2.08398 9.60938 1.47852 9.60938H1.42969C1.23438 9.60938 1.06836 9.54427 0.931641 9.41406C0.801432 9.27734 0.736328 9.11458 0.736328 8.92578C0.736328 8.73047 0.801432 8.56771 0.931641 8.4375C1.06836 8.30078 1.23438 8.23242 1.42969 8.23242H1.47852C1.99935 8.23242 2.43229 8.13802 2.77734 7.94922C3.1224 7.76042 3.48047 7.53581 3.85156 7.27539C4.17057 7.04753 4.5319 6.81966 4.93555 6.5918C5.3457 6.36393 5.82096 6.25 6.36133 6.25C6.92122 6.25 7.40625 6.37044 7.81641 6.61133C8.23307 6.85221 8.60091 7.08984 8.91992 7.32422C9.25195 7.57812 9.57096 7.79297 9.87695 7.96875C10.1895 8.14453 10.5638 8.23242 11 8.23242C11.4362 8.23242 11.8073 8.14453 12.1133 7.96875C12.4193 7.79297 12.7415 7.57812 13.0801 7.32422C13.3991 7.08984 13.7637 6.85221 14.1738 6.61133C14.5905 6.37044 15.0788 6.25 15.6387 6.25C16.179 6.25 16.651 6.36393 17.0547 6.5918C17.4648 6.81966 17.8294 7.04753 18.1484 7.27539C18.513 7.53581 18.8678 7.76042 19.2129 7.94922C19.5579 8.13802 19.9941 8.23242 20.5215 8.23242H20.5703C20.7591 8.23242 20.9219 8.30078 21.0586 8.4375C21.1953 8.56771 21.2637 8.73047 21.2637 8.92578C21.2637 9.11458 21.1953 9.27734 21.0586 9.41406C20.9219 9.54427 20.7591 9.60938 20.5703 9.60938H20.5215C19.9095 9.60938 19.3984 9.54427 18.9883 9.41406C18.5781 9.27734 18.2266 9.11133 17.9336 8.91602C17.6471 8.7207 17.39 8.52539 17.1621 8.33008C16.9342 8.12826 16.6999 7.96224 16.459 7.83203C16.2246 7.69531 15.9512 7.62695 15.6387 7.62695C15.3262 7.62695 15.0495 7.69531 14.8086 7.83203C14.5677 7.96224 14.3301 8.12826 14.0957 8.33008C13.8678 8.52539 13.6139 8.7207 13.334 8.91602C13.0605 9.11133 12.735 9.27734 12.3574 9.41406C11.9863 9.54427 11.5339 9.60938 11 9.60938ZM11 15.5176C10.4661 15.5176 10.0104 15.4492 9.63281 15.3125C9.26172 15.1823 8.9362 15.0195 8.65625 14.8242C8.38281 14.6224 8.12891 14.4238 7.89453 14.2285C7.66667 14.0332 7.43229 13.8704 7.19141 13.7402C6.95052 13.6035 6.67383 13.5352 6.36133 13.5352C6.04232 13.5352 5.76237 13.6035 5.52148 13.7402C5.28711 13.8704 5.05599 14.0332 4.82812 14.2285C4.60026 14.4238 4.3431 14.6224 4.05664 14.8242C3.77018 15.0195 3.41862 15.1823 3.00195 15.3125C2.5918 15.4492 2.08398 15.5176 1.47852 15.5176H1.42969C1.23438 15.5176 1.06836 15.4492 0.931641 15.3125C0.801432 15.1758 0.736328 15.013 0.736328 14.8242C0.736328 14.6354 0.801432 14.4759 0.931641 14.3457C1.06836 14.209 1.23438 14.1406 1.42969 14.1406H1.47852C1.99935 14.1406 2.43229 14.0462 2.77734 13.8574C3.1224 13.6686 3.48047 13.444 3.85156 13.1836C4.17057 12.9492 4.5319 12.7214 4.93555 12.5C5.3457 12.2721 5.82096 12.1582 6.36133 12.1582C6.92122 12.1582 7.40625 12.2786 7.81641 12.5195C8.23307 12.7539 8.60091 12.9883 8.91992 13.2227C9.25195 13.4831 9.57096 13.7012 9.87695 13.877C10.1895 14.0527 10.5638 14.1406 11 14.1406C11.4362 14.1406 11.8073 14.0527 12.1133 13.877C12.4193 13.7012 12.7415 13.4831 13.0801 13.2227C13.3991 12.9883 13.7637 12.7539 14.1738 12.5195C14.5905 12.2786 15.0788 12.1582 15.6387 12.1582C16.179 12.1582 16.651 12.2721 17.0547 12.5C17.4648 12.7214 17.8294 12.9492 18.1484 13.1836C18.513 13.444 18.8678 13.6686 19.2129 13.8574C19.5579 14.0462 19.9941 14.1406 20.5215 14.1406H20.5703C20.7591 14.1406 20.9219 14.209 21.0586 14.3457C21.1953 14.4759 21.2637 14.6354 21.2637 14.8242C21.2637 15.013 21.1953 15.1758 21.0586 15.3125C20.9219 15.4492 20.7591 15.5176 20.5703 15.5176H20.5215C19.9095 15.5176 19.3984 15.4492 18.9883 15.3125C18.5781 15.1823 18.2266 15.0195 17.9336 14.8242C17.6471 14.6224 17.39 14.4238 17.1621 14.2285C16.9342 14.0332 16.6999 13.8704 16.459 13.7402C16.2246 13.6035 15.9512 13.5352 15.6387 13.5352C15.3262 13.5352 15.0495 13.6035 14.8086 13.7402C14.5677 13.8704 14.3301 14.0332 14.0957 14.2285C13.8678 14.4238 13.6139 14.6224 13.334 14.8242C13.0605 15.0195 12.735 15.1823 12.3574 15.3125C11.9863 15.4492 11.5339 15.5176 11 15.5176Z" fill="#1B0C02"/>
</svg>
