<svg width="36" height="28" viewBox="0 0 36 28" fill="none" xmlns="http://www.w3.org/2000/svg">
<g clip-path="url(#clip0_2001_1035)">
<rect width="36" height="28" rx="2" fill="#1A47B8"/>
<path fill-rule="evenodd" clip-rule="evenodd" d="M3.82967 0H0V4.66667L32.1495 28L36 28V23.3333L3.82967 0Z" fill="white"/>
<path d="M1.27731 0L36 25.2661V28H34.7526L0 2.70771V0H1.27731Z" fill="#F93939"/>
<path fill-rule="evenodd" clip-rule="evenodd" d="M32.5714 0H36V4.66667C36 4.66667 13.7311 20.2124 3.42857 28H0V23.3333L32.5714 0Z" fill="white"/>
<path d="M36 0H34.8373L0 25.2879V28H1.27731L36 2.72816V0Z" fill="#F93939"/>
<path fill-rule="evenodd" clip-rule="evenodd" d="M13.0921 0H22.9378V8.63673H36V19.3576H22.9378V28H13.0921V19.3576H0V8.63673H13.0921V0Z" fill="white"/>
<path fill-rule="evenodd" clip-rule="evenodd" d="M15.1579 0H20.8421V10.7692H36V17.2308H20.8421V28H15.1579V17.2308H0V10.7692H15.1579V0Z" fill="#F93939"/>
</g>
<defs>
<clipPath id="clip0_2001_1035">
<rect width="36" height="28" rx="2" fill="white"/>
</clipPath>
</defs>
</svg>
